<?xml version="1.0" encoding="UTF-8"?><svg id="Calque_2" xmlns="http://www.w3.org/2000/svg" viewBox="0 0 32 32"><defs><style>.cls-1{fill:#fff;}.cls-2{opacity:.2;}</style></defs><g id="Calque_1-2"><circle cx="16" cy="16" r="16"/><path class="cls-1" d="m14.39,25.7c-.05,0-.1-.01-.15-.03-.16-.04-.29-.14-.37-.28-.26-.44-.31-.53,2.69-2.76-4.01,2.39-4.08,2.37-4.39,2.29-.16-.04-.29-.14-.37-.28-.28-.49-.32-.56,3.95-3.65-5.44,3.24-5.51,3.22-5.84,3.14-.16-.04-.29-.14-.37-.28-.32-.56-.34-.59,6.32-5.37-6.11,3.64-6.16,3.62-6.51,3.53-.16-.04-.29-.15-.37-.29-.23-.4-.31-.53,2.01-2.17-2.11,1.23-2.21,1.2-2.45,1.13-.16-.04-.29-.15-.37-.28-.28-.48-.33-.57,3.9-3.55-3.93,2.33-4.02,2.31-4.32,2.23-.16-.04-.29-.14-.37-.28q-.33-.57,6.9-5.99c-7.43,4.44-7.47,4.43-7.84,4.33-.16-.04-.29-.15-.37-.28-.3-.51-.32-.55,4.75-4.43-3.61,2.15-3.66,2.14-3.97,2.06-.16-.04-.29-.14-.37-.28-.25-.43-.3-.52,2.42-2.59-.84.47-.93.45-1.12.4-.16-.04-.29-.14-.37-.28q-.27-.48,3.03-3.43c.52-.47,1.1-.99,1.6-1.44l-.17-.4c.1-.05.42-.25.75-.44q1.02-.61,1.28-.54c.15.04.29.14.37.28.24.41.27.46-1.88,2.4,4.22-2.52,4.23-2.52,4.56-2.43.16.04.29.14.37.28.25.43.3.52-2.42,2.59,2.91-1.72,2.97-1.71,3.26-1.64.16.04.29.14.37.28.3.53.32.55-5,4.62.11-.07.22-.13.33-.2,7.61-4.55,7.66-4.54,8.04-4.45.16.04.29.15.37.28q.33.57-6.9,5.99c7.38-4.41,7.42-4.39,7.78-4.3.16.04.29.14.37.28.28.49.33.57-3.92,3.56,4.16-2.46,4.24-2.45,4.55-2.37.16.04.29.15.37.28.23.4.31.53-2.01,2.17,2.33-1.36,2.44-1.33,2.69-1.27.16.04.29.15.37.29.32.55.34.59-6.28,5.34,5.53-3.3,5.6-3.29,5.94-3.2.16.04.29.15.37.28.28.48.32.56-3.79,3.53,2.97-1.75,3.05-1.74,3.33-1.67.16.04.29.14.37.28.25.44.3.53-2.6,2.7,2.02-1.18,2.09-1.17,2.35-1.1.16.04.29.14.37.28.17.29.07.65-.22.82-.06.03-.12.06-.18.07-.49.23-3.08,1.77-5.18,3.03-4.67,2.79-5.35,3.19-5.67,3.19Z"/><g class="cls-2"><path class="cls-1" d="m14.58,26.52s-.08,0-.12,0c-.27-.02-.52-.14-.7-.34-.43-.5-.58-.67,1.08-2.63-1.41,1.2-1.55,1.19-1.89,1.17-.27-.02-.52-.14-.7-.35-.58-.67-.64-.74,4.04-6.36-4.97,4.45-5.03,4.44-5.57,4.41-.27-.02-.52-.14-.7-.34-.61-.7-.63-.72,4.87-7.77q-6.29,5.63-6.88,5.59c-.27-.02-.52-.14-.7-.34-.48-.56-.61-.7,1.78-3.54-1.76,1.53-1.89,1.52-2.26,1.5-.27-.02-.52-.14-.7-.34-.36-.42-.51-.59.32-1.74-.37.26-.49.25-.7.24-.27-.02-.52-.14-.69-.34-.36-.42-.32-1.05.1-1.41.06-.06.13-.1.2-.14.45-.34,2.42-2.1,4.01-3.53q4.43-3.95,4.95-3.92c.27.02.52.14.69.34.34.4.5.57-.19,1.55,3.17-2.82,3.26-2.81,3.71-2.78.27.02.52.14.7.34.48.56.61.7-1.8,3.56,3.59-3.19,3.67-3.19,4.16-3.16.27.02.52.14.7.34.61.7.63.72-4.88,7.79q6.66-5.96,7.27-5.93c.27.02.52.14.7.34.58.67.64.74-4.02,6.34,4.35-3.88,4.42-3.88,4.93-3.85.27.02.52.14.7.34.49.56.62.71-1.84,3.51.12-.04.22-.03.33-.03.27.02.52.14.7.34.46.53.54.62-1.2,3.18.08-.02.16-.01.26,0l-.06,1-.75.66.75-.66.53.84c-.21.15-1.46,1.27-2.37,2.08q-2.75,2.45-3.23,2.43c-.27-.02-.52-.14-.7-.35-.43-.5-.52-.61.92-2.76-4.91,4.39-5.3,4.74-5.76,4.74Z"/></g></g></svg>